<svg width="100" height="100" viewBox="0 0 100 100" fill="none" xmlns="http://www.w3.org/2000/svg">
<circle opacity="0.8" cx="50" cy="50" r="50" fill="#FFE500"/>
<path d="M28.8213 46V34.736H33.3973C36.5653 34.736 37.7813 36.24 37.7813 38.16C37.7813 39.472 36.7733 40.672 35.0293 40.96C34.9493 40.976 34.8533 41.024 34.8533 41.168C34.8533 41.296 34.9173 41.376 35.0293 41.376C36.6293 41.456 36.9653 42.32 37.2053 42.992L38.2933 46H35.7653L35.1573 43.712C34.8373 42.512 34.5173 41.904 32.7253 41.904H30.9973V46H28.8213ZM30.9973 40.08H33.1893C34.5173 40.08 35.6053 39.376 35.6053 38.384C35.6053 37.28 34.8693 36.624 33.6373 36.624H30.9973V40.08ZM47.7023 36.656H41.9423V39.472H46.6783V41.264H41.9423V44.08H47.7023V46H39.7663V34.736H47.7023V36.656ZM57.488 46L56.624 43.44H51.952L51.088 46H48.656L52.752 34.736H55.824L59.92 46H57.488ZM52.544 41.648H56.032L54.736 37.792C54.592 37.344 54.496 36.752 54.48 36.192C54.48 36.096 54.448 35.968 54.288 35.968C54.128 35.968 54.096 36.096 54.096 36.192C54.08 36.752 53.984 37.344 53.84 37.792L52.544 41.648ZM65.2236 34.736C69.4316 34.736 70.9996 37.392 70.9996 40.368C70.9996 43.344 69.3356 46 65.2236 46H61.0156V34.736H65.2236ZM65.4636 44.08C67.7356 44.08 68.8236 42.256 68.8236 40.368C68.8236 38.48 67.7356 36.656 65.4636 36.656H63.1916V44.08H65.4636ZM26.8369 64V52.736H30.6129L32.9489 61.248C33.0289 61.536 33.0449 61.952 33.0449 62.336C33.0449 62.464 33.1089 62.528 33.2369 62.528C33.3649 62.528 33.4289 62.464 33.4289 62.336C33.4289 61.952 33.4449 61.536 33.5249 61.248L35.8609 52.736H39.6369V64H37.4609V55.568C37.4609 55.056 37.5889 54.656 37.7329 54.224C37.7809 54.08 37.7329 53.984 37.5889 53.952C37.5089 53.936 37.4289 53.984 37.3969 54.096L34.5809 64H31.8929L29.0769 54.096C29.0449 53.984 28.9649 53.936 28.8849 53.952C28.7409 53.984 28.6929 54.08 28.7409 54.224C28.8849 54.656 29.0129 55.056 29.0129 55.568V64H26.8369ZM46.7456 52.608C50.2656 52.608 52.3776 55.184 52.3776 58.368C52.3776 61.552 50.2656 64.128 46.7456 64.128C43.2256 64.128 41.1136 61.552 41.1136 58.368C41.1136 55.184 43.2256 52.608 46.7456 52.608ZM46.7456 62.208C48.9056 62.208 50.2016 60.496 50.2016 58.368C50.2016 56.24 48.9056 54.528 46.7456 54.528C44.5856 54.528 43.2896 56.24 43.2896 58.368C43.2896 60.496 44.5856 62.208 46.7456 62.208ZM53.8519 64V52.736H58.4279C61.5959 52.736 62.8119 54.24 62.8119 56.16C62.8119 57.472 61.8039 58.672 60.0599 58.96C59.9799 58.976 59.8839 59.024 59.8839 59.168C59.8839 59.296 59.9479 59.376 60.0599 59.376C61.6599 59.456 61.9959 60.32 62.2359 60.992L63.3239 64H60.7959L60.1879 61.712C59.8679 60.512 59.5479 59.904 57.7559 59.904H56.0279V64H53.8519ZM56.0279 58.08H58.2199C59.5479 58.08 60.6359 57.376 60.6359 56.384C60.6359 55.28 59.8999 54.624 58.6679 54.624H56.0279V58.08ZM72.7329 54.656H66.9729V57.472H71.7089V59.264H66.9729V62.08H72.7329V64H64.7969V52.736H72.7329V54.656Z" fill="black"/>
</svg>
